<?xml version="1.0" encoding="UTF-8" standalone="no"?>
<!-- Created with Inkscape (http://www.inkscape.org/) -->

<svg
   width="106.8022mm"
   height="172.67992mm"
   viewBox="0 0 403.66187 652.64851"
   version="1.1"
   id="svg1"
   xml:space="preserve"
   xmlns:xlink="http://www.w3.org/1999/xlink"
   xmlns="http://www.w3.org/2000/svg"
   xmlns:svg="http://www.w3.org/2000/svg"><defs
     id="defs1"><linearGradient
       id="linearGradient70"><stop
         style="stop-color:#ffffff;stop-opacity:1;"
         offset="0"
         id="stop69" /><stop
         style="stop-color:#008080;stop-opacity:1;"
         offset="1"
         id="stop70" /></linearGradient><linearGradient
       id="linearGradient67"><stop
         style="stop-color:#ffffff;stop-opacity:1;"
         offset="0"
         id="stop67" /><stop
         style="stop-color:#008080;stop-opacity:1;"
         offset="1"
         id="stop68" /></linearGradient><linearGradient
       xlink:href="#linearGradient67"
       id="linearGradient68"
       x1="406.99847"
       y1="368.9071"
       x2="406.99847"
       y2="772.56897"
       gradientUnits="userSpaceOnUse" /><linearGradient
       xlink:href="#linearGradient70"
       id="linearGradient69"
       gradientUnits="userSpaceOnUse"
       x1="406.99847"
       y1="368.9071"
       x2="406.99847"
       y2="772.56897" /><linearGradient
       xlink:href="#linearGradient70"
       id="linearGradient71"
       gradientUnits="userSpaceOnUse"
       x1="782.60535"
       y1="-289.1217"
       x2="763.96832"
       y2="366.8562" /><linearGradient
       xlink:href="#linearGradient70"
       id="linearGradient4"
       gradientUnits="userSpaceOnUse"
       x1="406.99847"
       y1="368.9071"
       x2="406.99847"
       y2="772.56897" /></defs><g
     id="layer1"
     transform="translate(-205.16753,-244.41376)"><g
       id="g66"
       style="fill:url(#linearGradient68);fill-opacity:1"><g
         id="g68"
         style="fill:url(#linearGradient69)"><path
           style="fill:url(#linearGradient4);fill-opacity:1;fill-rule:evenodd"
           d="m 436.30949,819.07549 c -4.17589,-4.4 -8.01636,-8 -8.53436,-8 -0.53154,0 -0.64731,1.34092 -0.26574,3.07817 1.06039,4.82794 -0.21194,9.46172 -2.93916,10.70433 -3.39281,1.54586 -9.08683,-0.41157 -11.85582,-4.07568 -1.22221,-1.6173 -3.36014,-4.35046 -4.75097,-6.07369 -5.52449,-6.84481 -16.21599,-25.10631 -21.44748,-36.63313 -1.62253,-3.575 -5.24768,-11 -8.05591,-16.5 -4.47439,-8.76323 -5.39294,-9.95837 -7.42707,-9.66339 -1.77687,0.25768 -2.17844,-0.0355 -1.71237,-1.25 0.33486,-0.87264 0.20485,-1.58661 -0.28892,-1.58661 -0.49376,0 -3.43002,-7.7625 -6.52501,-17.25 -3.09499,-9.4875 -6.95188,-20.0637 -8.57086,-23.50267 -1.61898,-3.43897 -2.9436,-6.56205 -2.9436,-6.94018 0,-0.37813 -1.3,-3.41443 -2.88889,-6.74733 -5.94666,-12.47393 -11.11111,-23.6874 -11.11111,-24.12534 0,-0.45341 -5.76867,-13.91229 -12.40173,-28.93448 -3.43256,-7.77387 -5.41105,-9.70174 -7.89631,-7.69427 -0.66108,0.53398 -4.35196,1.87571 -8.20196,2.98161 -3.85,1.10591 -13.525,4.03895 -21.5,6.51787 -7.975,2.47892 -16.075,4.82631 -18,5.21643 -1.92501,0.39012 -3.95001,1.04778 -4.50001,1.46149 -1.39372,1.04833 -15.82984,2.21126 -17.84593,1.43762 -2.18849,-0.83981 -2.122,-4.15361 0.0959,-4.78103 0.9625,-0.27228 4.225,-0.80299 7.25,-1.17936 6.95659,-0.86553 8.24976,-1.81809 6.79694,-5.00669 -1.52426,-3.34536 3.9e-4,-4.84215 7.77094,-7.62897 3.53767,-1.26875 6.43213,-2.64834 6.43213,-3.06576 0,-0.41742 0.45021,-0.75894 1.00047,-0.75894 0.87169,0 5.02176,-2.79127 24.27534,-16.32718 7.82425,-5.50071 8.23556,-6.6285 4.98657,-13.67282 -4.18701,-9.07811 -7.44588,-16.65439 -9.89326,-23 -1.37881,-3.575 -4.08273,-10.3663 -6.00871,-15.09177 -1.92598,-4.72548 -3.63778,-9.67548 -3.80399,-11 -0.16621,-1.32453 -1.9344,-5.89764 -3.92931,-10.16246 -1.99491,-4.26483 -3.62711,-8.68191 -3.62711,-9.81574 0,-1.13383 -0.54913,-3.04443 -1.22028,-4.24577 -1.69735,-3.03821 -3.74966,-8.88653 -3.74935,-10.68426 2.2e-4,-1.33334 0.10796,-1.33334 0.96963,0 0.70439,1.08996 0.97356,1.14217 0.98468,0.19098 0.0355,-3.03099 1.9701,0.24788 3.08454,5.22775 0.79667,3.55987 2.35633,6.67872 4.60236,9.20333 2.53529,2.84975 3.32515,4.5799 3.11287,6.81862 -0.21592,2.2772 0.1723,3.09174 1.61145,3.38104 1.50481,0.3025 1.7393,-8e-4 1.13669,-1.4703 -0.41758,-1.01828 -0.87762,-3.42642 -1.02231,-5.35142 -0.32953,-4.38394 -6.38117,-22.28043 -10.6597,-31.52387 -1.77599,-3.83687 -3.1439,-7.31363 -3.03982,-7.72613 0.46206,-1.83127 -1.59749,-0.51351 -2.58507,1.654 -0.90527,1.98685 -0.7596,2.70783 0.83949,4.15498 2.57404,2.32948 2.53677,5.44102 -0.0652,5.44102 -1.1,0 -2,-0.6199 -2,-1.37756 0,-0.75765 -0.61854,-1.8909 -1.37453,-2.51831 -1.64283,-1.36342 -2.78986,-9.08252 -2.72066,-18.30899 0.0276,-3.68767 -0.38962,-6.97673 -0.92727,-7.30902 -1.33701,-0.82632 -1.23826,-3.48612 0.12943,-3.48612 0.60885,0 0.84797,0.675 0.53139,1.5 -0.36156,0.9422 0.0103,1.5 1,1.5 1.02591,0 1.36385,-0.55186 0.96862,-1.58179 -0.33384,-0.86998 -0.60699,-2.17184 -0.60699,-2.89301 0,-1.85246 -3.17516,-2.85289 -4.15474,-1.30907 -0.59916,0.94427 -0.81869,0.82097 -0.82995,-0.46613 -0.008,-0.9625 0.45508,-1.75 1.03,-1.75 0.65244,0 0.79928,-1.31148 0.39069,-3.48944 -0.4938,-2.63219 -0.28121,-3.63273 0.86537,-4.07272 1.10544,-0.42419 1.43999,-1.76499 1.22666,-4.91617 -0.33789,-4.99113 -1.06238,-6.52167 -3.08705,-6.52167 -1.82225,0 -1.80526,0.47928 0.20339,5.73886 0.9044,2.36815 1.38434,4.56575 1.06653,4.88357 -0.94737,0.94736 -2.7084,-0.61298 -2.74417,-2.43145 -0.0183,-0.93004 -0.90092,-2.73187 -1.96138,-4.00407 l -1.92811,-2.31309 -7.28862,1.98773 c -19.2547,5.2511 -33.29051,5.65717 -41.78859,1.209 -1.6663,-0.87218 -3.4765,-11.036 -2.5927,-14.55725 0.8242,-3.28399 6.3421,-9.66297 13.59267,-15.71384 10.09302,-8.42303 14.86769,-11.34086 25.06008,-15.3144 5.19195,-2.0241 9.88992,-4.03499 10.43992,-4.46865 1.86006,-1.4666 20.92972,-4.08653 32.65398,-4.48623 15.02906,-0.51238 33.18396,2.27813 42.58513,6.54558 2.3315,1.05833 4.42889,1.92424 4.66086,1.92424 2.33656,0 25.43187,12.56347 30.36938,16.52044 5.94213,4.76208 26.48787,14.48274 27.9967,13.24587 0.98809,-0.80998 1.12749,-6.00268 0.63496,-23.65207 -0.3471,-12.43784 -1.02493,-23.36396 -1.50629,-24.28028 -0.48137,-0.91632 -0.58986,-3.16632 -0.24109,-5 0.34876,-1.83368 0.78729,-13.00896 0.97452,-24.83396 0.18722,-11.825 0.38821,-22.175 0.44663,-23 0.28611,-4.03983 -1.33848,-38.47106 -2.14273,-45.41283 -0.52673,-4.54633 -1.57027,-8.63494 -2.45282,-9.61014 -1.1444,-1.26455 -1.29591,-2.329 -0.5942,-4.17463 1.05602,-2.77754 -0.44731,-11.80241 -1.96601,-11.80241 -0.50546,0 -0.91937,-0.7875 -0.9198,-1.75 -4.4e-4,-0.9625 -1.35044,-4.60291 -3,-8.08979 -3.51207,-7.42387 -3.73639,-9.79147 -1.00971,-10.65688 5.02786,-1.59578 12.05438,8.62805 13.66992,19.89022 0.30719,2.14145 2.34193,9.11645 4.52165,15.5 2.17972,6.38354 3.95932,12.38509 3.95466,13.33676 -0.005,0.95167 0.4129,1.99072 0.9279,2.30901 0.515,0.31829 0.93637,1.40048 0.93637,2.40486 0,1.00438 0.64298,4.01532 1.42884,6.69098 1.87597,6.38718 4.21083,14.79254 7.18479,25.86485 1.32954,4.95 3.25759,11.7 4.28455,15 1.02696,3.3 3.08938,10.05 4.58315,15 3.55998,11.7969 13.46244,41.49312 17.84005,53.5 1.90499,5.225 5.26552,14.45 7.46784,20.5 4.25506,11.68905 14.71598,38.34034 18.64426,47.5 1.29733,3.025 4.31802,10.19765 6.71265,15.93922 2.39463,5.74158 6.37887,14.51658 8.85387,19.5 l 4.5,9.06078 7,2.17958 c 3.85,1.19877 11.05,3.407 16,4.90717 9.03107,2.737 17.39167,6.10579 31.67655,12.76363 4.2221,1.96782 11.83762,4.74779 16.92337,6.17771 14.25784,4.00876 20.52826,7.88168 19.27459,11.90495 -0.8889,2.85263 -2.23205,3.53959 -6.87451,3.51602 -6.79815,-0.0345 -27.16294,-6.0199 -31.1936,-9.16807 -2.01187,-1.57138 -11.36445,-3.74401 -20.3064,-4.71724 -4.675,-0.50882 -10.3,-1.19702 -12.5,-1.52932 -6.14846,-0.92871 -7.21452,0.34102 -4.71102,5.611 1.13774,2.39501 4.1435,9.07957 6.67946,14.85457 2.53595,5.775 5.03058,11.4 5.54361,12.5 0.51303,1.1 1.797,4.25 2.85326,7 1.05626,2.75 3.09367,7.55866 4.52758,10.68592 1.43391,3.12726 2.60711,5.94434 2.60711,6.26018 0,1.6305 11.53502,23.56805 14.06296,26.74526 1.61537,2.03025 2.94599,4.05525 2.95693,4.5 0.0181,0.73492 4.63464,7.97816 9.34034,14.65472 2.512,3.56408 1.54358,7.65392 -1.81234,7.65392 -2.71921,0 -6.66206,-4.47567 -13.21429,-15 -2.22572,-3.575 -5.46481,-8.75 -7.19797,-11.5 -1.73317,-2.75 -3.85205,-6.51827 -4.70862,-8.37394 -0.85658,-1.85566 -4.67808,-9.84826 -8.49222,-17.76134 -3.81414,-7.91307 -6.93479,-14.57182 -6.93479,-14.79721 0,-0.22539 -2.42232,-5.50779 -5.38294,-11.73866 -2.96061,-6.23087 -7.65316,-16.13315 -10.42788,-22.00507 -2.77527,-5.87309 -5.94759,-11.1593 -7.05132,-11.75 -2.88956,-1.54645 -7.10587,-1.32073 -7.77235,0.41609 -0.90543,2.3595 7.02614,24.39716 10.62098,29.51013 0.96674,1.375 2.91405,5.875 4.32736,10 5.94016,17.33742 8.37205,22.37255 11.52732,23.86685 2.80726,1.3295 2.91503,1.57559 1.58142,3.61095 -1.26151,1.9253 -1.20532,2.82657 0.47401,7.6032 1.66272,4.72936 5.13959,13.06135 8.1034,19.419 0.51279,1.1 2.05745,4.60929 3.43256,7.79842 2.77724,6.44092 6.20994,11.70158 7.63553,11.70158 0.51255,0 0.94191,-1.6875 0.95414,-3.75 l 0.0222,-3.75 1.91612,2.494 c 2.56712,3.34135 4.25698,9.70834 3.86199,14.55106 -0.2753,3.37527 -0.69072,3.99794 -2.83432,4.24837 -3.32988,0.38901 -7.64464,-4.20059 -12.49738,-13.29343 -4.07735,-7.63996 -10.77615,-23.41215 -16.56416,-39 -1.22534,-3.3 -4.18548,-8.58856 -6.57809,-11.75236 -2.39261,-3.16379 -4.46235,-6.2981 -4.59942,-6.96513 -0.13707,-0.66703 -0.99704,-1.90347 -1.91105,-2.74765 -0.91401,-0.84417 -4.50644,-7.04736 -7.98317,-13.78486 -3.47674,-6.7375 -6.89141,-12.25 -7.58817,-12.25 -1.25364,0 -1.75742,-2.17608 -0.73944,-3.19405 0.29006,-0.29007 2.32475,-0.19872 4.52154,0.20299 2.19678,0.40171 4.24587,0.32309 4.55353,-0.17472 0.53153,-0.86004 -1.82108,-7.59373 -5.70683,-16.33422 -0.97806,-2.2 -2.06883,-5.19913 -2.42396,-6.66472 -0.79097,-3.26439 -3.69285,-4.47886 -12.79249,-5.35381 -6.12952,-0.58936 -6.87037,-0.46636 -7.3097,1.21367 -0.26889,1.02822 -1.74349,2.42483 -3.27691,3.10359 -1.53341,0.67875 -5.62028,3.81421 -9.08193,6.96768 -3.46166,3.15347 -11.03654,9.55859 -16.83307,14.23359 -6.58689,5.31243 -10.78048,9.43751 -11.1827,11 -0.35396,1.375 -0.0677,13.3 0.63619,26.5 0.70386,13.2 1.40229,32.775 1.55206,43.5 0.23876,17.09748 0.0461,20.02362 -1.56398,23.75 -1.36035,3.14844 -2.40428,4.25 -4.02771,4.25 -2.91657,0 -4.59142,-1.82389 -4.59142,-5 0,-3.03229 1.65288,-5 4.2,-5 1.83142,0 2.58929,-3.39416 0.97996,-4.38878 -0.45102,-0.27875 -0.90716,-12.56781 -1.01365,-27.30902 -0.21076,-29.1773 -0.77489,-38.47809 -2.66781,-43.98423 l -1.23394,-3.58928 -1.10161,4.88565 c -0.60589,2.68711 -1.40665,7.13566 -1.77946,9.88566 -0.37281,2.75 -1.54359,7.02441 -2.60173,9.4987 -1.62366,3.79663 -2.07547,4.22786 -2.89511,2.76325 -0.61301,-1.0954 -0.62346,-2.38576 -0.0283,-3.4987 1.18974,-2.2249 1.22436,-8.52236 0.057,-10.36604 -0.48658,-0.76847 -0.92908,-0.94721 -0.98333,-0.39721 -0.0543,0.55 -0.28919,1.9 -0.52206,3 -1.38283,6.5318 -1.52557,10.91539 -0.42255,12.97641 0.90246,1.68625 0.93209,2.80555 0.11471,4.33285 -1.61357,3.01498 -1.34665,6.29142 0.63032,7.73702 1.55537,1.13731 1.60031,1.76067 0.43979,6.09972 -1.85672,6.94208 -3.41715,9.77749 -5.61371,10.20051 -4.95374,0.954 -5.69227,-7.43562 -2.96931,-33.73117 1.83803,-17.74981 1.55119,-18.57256 -5.04312,-14.46552 -2.22533,1.38598 -5.33448,3.26925 -6.90923,4.18507 -1.57475,0.91581 -6.44244,3.80261 -10.81708,6.41511 -4.37465,2.6125 -8.43311,4.75 -9.01879,4.75 -2.1852,0 -7.80095,4.22518 -7.80095,5.86928 0,0.93839 1.61725,5.51419 3.5939,10.16844 1.97665,4.65425 4.71797,11.16228 6.09183,14.46228 2.40791,5.78378 7.60255,17.22787 11.12091,24.5 0.93135,1.925 4.13866,7.29509 7.12737,11.93354 6.88397,10.68386 12.06599,21.16662 12.06599,24.40842 0,2.56361 -4.05289,6.65804 -6.5905,6.65804 -1.09242,0 -1.09433,0.64839 -0.0111,3.75 0.72035,2.0625 1.63299,5.55 2.02808,7.75 0.39509,2.2 1.74431,6.25 2.99826,9 1.25395,2.75 3.33975,7.475 4.63512,10.5 2.435,5.68635 8.81525,16.24678 10.17013,16.83333 0.42347,0.18333 0.77395,0.85833 0.77884,1.5 0.005,0.64167 2.14239,3.71358 4.75,6.82648 2.60761,3.1129 7.3241,8.9629 10.48108,13 6.51253,8.32812 9.92279,12.19797 20.12762,22.84019 8.76553,9.14121 12.63242,14.26341 12.63242,16.73327 0,1.93613 -1.77256,4.26673 -3.2451,4.26673 -0.4648,0 -4.26173,-3.6 -8.43763,-8 z m -15.78184,-7.75 c -0.38226,-3.1625 -1.55911,-7.23823 -2.61522,-9.05716 -1.05612,-1.81894 -1.92021,-3.75734 -1.92021,-4.30756 0,-0.55022 -2.74433,-4.237 -6.09851,-8.19284 -8.03214,-9.47294 -21.90793,-30.54664 -27.46419,-41.71095 -2.44052,-4.90377 -4.4373,-9.14236 -4.4373,-9.41909 0,-0.27672 -1.05951,-2.87897 -2.35447,-5.78277 -2.86378,-6.42171 -2.96712,-6.68656 -7.71757,-19.77963 -7.83365,-21.59092 -8.70786,-23.54974 -11.93833,-26.75 -3.78211,-3.74674 -6.7197,-4.48267 -4.98963,-1.25 0.5887,1.1 0.8497,2 0.57999,2 -0.65096,0 3.84208,11.87032 7.36424,19.45583 1.54356,3.32429 3.50144,7.61917 4.35086,9.54417 3.03274,6.873 8.41763,18.60588 11.47392,25 1.7088,3.575 6.07399,12.8 9.70042,20.5 3.62644,7.7 7.01603,14.675 7.53243,15.5 0.5164,0.825 2.37776,4.425 4.13635,8 6.64991,13.51846 20.32622,32 23.67996,32 1.1332,0 1.27494,-1.13622 0.71726,-5.75 z M 295.83512,627.40617 c 1.4614,-0.36343 4.08176,-1.45758 5.82302,-2.43143 10.00506,-5.59564 12.62769,-8.58076 9.68466,-11.02326 -1.15051,-0.95484 -1.99092,-0.7597 -4.14677,0.96283 -1.4871,1.1882 -5.40381,4.04831 -8.70381,6.35579 -6.47113,4.52485 -8.5,6.27707 -8.5,7.34095 0,0.37313 0.7168,0.40335 1.5929,0.0672 0.87609,-0.33619 2.78859,-0.90861 4.25,-1.27204 z m 54.46465,-15.65894 c 2.30585,-1.28054 10.49906,-5.77543 18.20715,-9.98865 18.18599,-9.94039 19.88961,-11.51453 21.33359,-19.71214 0.72567,-4.11969 0.78239,-6.74027 0.15938,-7.36328 -1.41751,-1.41751 -5.65317,1.15691 -9.13372,5.55147 -1.62423,2.05076 -5.1112,5.31281 -7.74883,7.24901 -2.63763,1.9362 -6.55732,5.14632 -8.71041,7.1336 -2.15309,1.98728 -8.07721,6.52535 -13.16471,10.08461 -9.01394,6.30623 -11.36758,9.37364 -7.19245,9.37364 1.13166,0 3.94416,-1.04772 6.25,-2.32826 z m -37.64089,-13.17174 c 0,-0.825 -0.375,-1.5 -0.83333,-1.5 -0.45833,0 -0.83333,0.675 -0.83333,1.5 0,0.825 0.375,1.5 0.83333,1.5 0.45833,0 0.83333,-0.675 0.83333,-1.5 z m 175.26472,-3.2298 c -0.78551,-1.52361 -1.79162,-3.03734 -2.2358,-3.36384 -0.44418,-0.3265 -1.02477,-2.34449 -1.29018,-4.48442 -0.59694,-4.81277 -3.16536,-9.06199 -4.60644,-7.62091 -1.05929,1.05929 0.70366,8.1914 2.02859,8.20677 1.01558,0.0118 3.17245,5.10509 3.17245,7.49156 0,2.70849 2.05322,4.84741 3.37979,3.52084 0.63972,-0.63972 0.48409,-1.94128 -0.44841,-3.75 z m -141.78362,-2.98983 c 4.04373,-3.1458 7.97074,-6.31966 8.72669,-7.05303 0.75594,-0.73336 6.83094,-5.90898 13.5,-11.50137 17.11749,-14.35403 26.62555,-23.82081 26.62555,-26.50997 0,-1.2188 -0.4357,-2.216 -0.96822,-2.216 -1.25686,0 -24.75144,17.96157 -38.58739,29.5 -16.93618,14.12385 -20.44439,17.55068 -20.44439,19.97017 0,5.15661 2.28014,4.70871 11.14776,-2.1898 z m -39.58252,-10.49068 c -0.86088,-1.22909 -1.56524,-3.25958 -1.56524,-4.5122 0,-1.25262 -0.45,-2.27749 -1,-2.27749 -0.55,0 -0.94671,-0.3375 -0.88158,-0.75 0.34597,-2.19117 -0.29602,-4.28474 -1.76409,-5.75281 -0.90511,-0.90511 -1.76964,-2.77513 -1.92118,-4.15559 -0.15154,-1.38047 -0.98599,-3.295 -1.85434,-4.25451 -0.86835,-0.95952 -1.57881,-2.24592 -1.57881,-2.85867 0,-0.61276 -1.00745,-2.82159 -2.23876,-4.90852 -2.97444,-5.0413 -3.73201,-1.92685 -0.96948,3.98564 1.0779,2.30695 2.27533,5.6518 2.66096,7.43299 0.38563,1.78119 1.11653,3.49525 1.62421,3.80902 0.50769,0.31376 0.92307,1.38324 0.92307,2.3766 0,0.99337 0.88526,2.93156 1.96724,4.30708 1.08199,1.37552 1.71939,2.7488 1.41644,3.05175 -0.74901,0.74901 3.39323,9.95856 4.9052,10.90582 1.88403,1.18037 2.09899,-3.79694 0.27636,-6.39911 z m 31.00476,-0.0938 c 2.1615,-1.81727 6.63,-5.3648 9.93,-7.8834 3.3,-2.5186 7.29111,-5.78494 8.86913,-7.25853 1.57803,-1.47359 4.50303,-3.7891 6.5,-5.14558 6.02731,-4.09413 9.47513,-6.74411 13.21444,-10.15656 1.95764,-1.78652 5.77719,-4.80797 8.48789,-6.71435 8.17042,-5.74609 10.42854,-7.70096 10.42854,-9.02808 0,-0.69603 -2.6428,-2.25385 -5.87289,-3.46183 -4.72914,-1.76858 -8.07319,-2.20625 -17.1709,-2.24737 -10.4614,-0.0473 -11.47049,-0.22353 -13.62712,-2.38016 -4.86621,-4.86621 -1.13417,-9.25769 6.80415,-8.0064 2.49033,0.39254 4.00265,0.12758 4.80757,-0.84228 1.91406,-2.30631 8.61802,-2.99374 11.24581,-1.15316 2.32048,1.62533 9.20615,1.96889 13.80584,0.68885 2.11178,-0.58768 2.60907,-1.5039 3.25596,-5.9989 1.46936,-10.20999 -1.5307,-20.34344 -9.43365,-31.86456 -2.92849,-4.26922 -6.87985,-6.84237 -14.97179,-9.74971 -2.38864,-0.85821 -9.29298,-3.321 -15.34298,-5.47286 -19.50041,-6.93589 -18.00596,-6.3226 -39.5,-16.20987 -9.01676,-4.14771 -14.63545,-6.45472 -18,-7.39074 -1.375,-0.38252 -3.55816,-1.52177 -4.85145,-2.53165 -1.2933,-1.00989 -3.9933,-2.13209 -6,-2.49378 -2.00671,-0.36169 -4.09855,-0.93431 -4.64855,-1.27249 -0.55,-0.33818 -3.475,-1.12253 -6.5,-1.74301 -5.79307,-1.18825 -10,-0.40017 -10,1.8733 0,2.02434 2.95171,5.74726 4.5567,5.74726 1.72849,0 1.86523,1.17807 0.3165,2.7268 -0.83574,0.83573 -0.55636,2.0498 1.08156,4.7 1.21459,1.96526 2.62165,3.5732 3.1268,3.5732 0.50514,0 0.91844,1.38707 0.91844,3.08238 0,1.69532 1.35,6.15824 3,9.91762 1.65,3.75937 3,7.12199 3,7.47247 0,0.35049 0.84209,2.52507 1.87131,4.83239 5.0417,11.30252 12.03115,29.12118 13.60932,34.69514 0.69548,2.45634 8.49291,22.61665 11.02299,28.5 0.70957,1.65 2.73669,6.6 4.50471,11 1.76802,4.4 4.33346,10.475 5.70097,13.5 4.44887,9.84112 5.2907,11.79488 5.2907,12.279 0,0.26221 0.68104,2.1067 1.51342,4.09887 1.9018,4.55167 3.93601,4.6231 9.05658,0.31799 z m 78.77563,-10.9285 c 1.7349,-1.22795 7.19978,-5.84045 12.14417,-10.25 17.08325,-15.23533 17.36265,-16.39002 4.5102,-18.63905 -20.01396,-3.5022 -20.05763,-3.49943 -22.76097,1.44256 -1.41668,2.58983 -1.70684,5.44463 -1.56536,15.40112 0.0955,6.7221 0.45958,12.6846 0.80902,13.25 1.01035,1.63478 3.45838,1.20508 6.86294,-1.20463 z m 64.51943,-31.10478 c 1.53357,-1.84783 -2.63224,-5.67929 -6.47479,-5.95511 -2.47162,-0.17742 -2.89027,0.15465 -2.89027,2.29253 0,1.96313 0.75161,2.75631 3.5,3.69355 4.5243,1.54287 4.55905,1.54268 5.86506,-0.031 z m -16.06185,-4.29815 c 0.47021,-3.28 -2.37239,-5.36443 -7.31563,-5.36443 -2.40325,0 -4.64767,-0.45 -4.98758,-1 -0.82502,-1.33491 -7.20695,-1.2832 -8.04026,0.0651 -0.43448,0.703 -1.26631,0.5149 -2.44661,-0.55326 -1.3187,-1.19341 -3.32778,-1.53876 -7.65072,-1.31514 -3.22433,0.16679 -5.78049,0.73492 -5.68036,1.26252 0.3379,1.7804 11.16802,4.69134 13.26958,3.56662 1.43747,-0.76931 2.30648,-0.62491 3.51554,0.58415 1.21956,1.21956 2.65052,1.44945 5.94605,0.95525 3.43003,-0.51436 4.46603,-0.32231 4.94121,0.91597 0.67212,1.75151 4.35025,3.52654 6.64557,3.20708 0.825,-0.11482 1.63644,-1.16058 1.80321,-2.3239 z m 9.00575,-13.62273 c 0.16993,-0.87591 -0.55585,-3.53862 -1.61285,-5.91713 -1.05699,-2.37852 -3.14461,-7.69957 -4.63914,-11.82457 -1.49454,-4.125 -3.10218,-8.4 -3.57254,-9.5 -0.47036,-1.1 -1.82638,-4.25 -3.01339,-7 -5.26994,-12.20913 -20.60258,-52.4194 -25.54787,-67 -2.9847,-8.8 -6.37124,-18.7 -7.52567,-22 -1.15442,-3.3 -2.52484,-7.575 -3.04537,-9.5 -0.52054,-1.925 -1.34758,-4.4 -1.83787,-5.5 -0.49028,-1.1 -1.8049,-4.925 -2.92135,-8.5 -6.35779,-20.35817 -11.26473,-36.37884 -13.13103,-42.87148 -1.55353,-5.40453 -2.41533,-7.07508 -3.22973,-6.26067 -2.0338,2.03379 6.77085,44.88632 12.76591,62.13215 1.43395,4.125 3.23542,9.70442 4.00328,12.39872 0.76785,2.69429 1.86917,5.37179 2.44737,5.95 0.57821,0.5782 1.05129,2.05972 1.05129,3.29226 0,1.23254 0.45,2.5191 1,2.85902 0.55,0.33992 1,1.48674 1,2.54849 0,1.06176 1.0867,4.7477 2.4149,8.19099 1.32819,3.44328 3.33264,9.18552 4.45433,12.76052 1.93816,6.17719 3.85712,11.52624 11.12122,31 1.74387,4.675 5.77979,13.45118 8.96871,19.50264 4.07256,7.72828 6.58153,14.1096 8.43076,21.4428 2.93745,11.6486 4.50078,14.7089 7.83544,15.33836 3.23268,0.61021 4.23122,0.27426 4.5836,-1.5421 z m -18.9297,-3.09622 c 2.55221,-3.07523 -3.81905,-22.60066 -11.00017,-33.71125 -5.44617,-8.42629 -15.12376,-17.62765 -20.11179,-19.1221 -2.59683,-0.77803 -4.66237,-2.20962 -5.63615,-3.90633 -3.1186,-5.43385 -8.13115,-5.86341 -8.13115,-0.6968 0,2.10309 11.19351,14.40025 13.88561,15.25469 0.88867,0.28206 2.23787,1.91824 2.99821,3.63597 0.76034,1.71772 3.79752,5.82978 6.7493,9.1379 4.65829,5.22063 5.36545,6.55923 5.35605,10.1386 -0.0133,5.07546 -2.37885,13.15637 -4.46069,15.23821 -2.09264,2.09264 -0.87476,3.69861 2.3428,3.08936 1.44579,-0.27377 5.32872,0.0932 8.62872,0.81544 7.82634,1.71294 8.05986,1.71608 9.37926,0.12631 z m -37.28939,-2.4108 c 3.25063,-2.19127 7.32758,-9.72586 7.94754,-14.68781 0.92133,-7.37407 0.074,-9.20337 -5.59336,-12.07522 -2.69944,-1.36791 -5.64293,-3.60864 -6.54108,-4.97938 -3.70068,-5.64797 -5.74248,-1.97594 -5.84274,10.50773 -0.0577,7.18117 2.33615,17.75021 4.69975,20.75 1.09092,1.38455 3.64979,1.61725 5.32989,0.48468 z m -1.27601,-38.61023 c 0.31204,-0.81314 -0.48117,-1.83528 -1.94006,-2.5 -3.21836,-1.46638 -4.3738,-1.42001 -4.3738,0.17555 0,3.17082 5.24772,5.10277 6.31386,2.32445 z m -20.8334,-14.06047 c -0.48113,-4.33688 -1.28789,-6.63361 -2.8326,-8.06398 -14.71383,-13.6248 -22.67906,-20.5113 -25.2193,-21.80385 -3.9863,-2.02835 -19.52262,-7.11109 -25.92856,-8.48259 -2.75,-0.58877 -6.20993,-1.32934 -7.68872,-1.6457 -5.17222,-1.10651 -3.66266,1.12118 2.9845,4.40427 15.1963,7.50558 33.97135,21.63039 43.23687,32.52787 2.33817,2.75 6.28466,6.45759 8.76997,8.23909 6.12976,4.39389 7.61198,3.24521 6.67784,-5.17511 z m 42.49495,2.68602 c -0.0258,-1.83821 -2.37261,-8.99998 -5.98019,-18.25 -1.17978,-3.025 -2.51662,-6.625 -2.97077,-8 -0.45414,-1.375 -2.70914,-7.675 -5.01109,-14 -2.30196,-6.325 -4.77597,-13.525 -5.49781,-16 -0.72183,-2.475 -1.96747,-6.3 -2.76808,-8.5 -0.80061,-2.2 -1.76671,-5.6875 -2.14688,-7.75 -0.42074,-2.2826 -1.25618,-3.75 -2.135,-3.75 -1.19073,0 -1.34636,1.53365 -0.88794,8.75 0.30572,4.8125 0.63831,16.44427 0.7391,25.84838 0.14234,13.2815 0.51073,17.52289 1.65028,19 0.80687,1.04589 1.07327,1.56802 0.59201,1.16029 -0.96478,-0.81736 -3.55904,0.94356 -3.55904,2.41579 0,0.51127 1.35,1.40019 3,1.97538 1.65,0.57519 3,1.41519 3,1.86667 0,0.45147 3.7125,3.64894 8.25,7.10547 4.5375,3.45654 9.12235,7.09313 10.18856,8.08132 2.44548,2.26652 3.56825,2.28135 3.53685,0.0467 z m -64.97541,-3.63492 c 0,-2.93186 -12.4565,-13.33799 -26.76649,-22.36067 -20.60567,-12.99219 -33.93251,-17.40521 -52.67557,-17.44283 -17.96402,-0.0361 -22.8253,2.77034 -9.8491,5.68586 7.86673,1.76752 16.44959,4.7789 23.79116,8.34737 27.03399,13.14025 33.87179,16.18116 47,20.90192 3.85,1.38442 9.25,3.34307 12,4.35255 6.08345,2.23315 6.5,2.2662 6.5,0.5158 z m 30.60416,-10.34425 c -1.01651,-1.01652 -1.85525,0.51389 -1.02121,1.86338 0.63003,1.01942 0.86557,1.02021 1.2043,0.004 0.23159,-0.69478 0.1492,-1.53512 -0.18309,-1.86741 z m -165.44327,-2.25793 c 3.4865,-1.09291 7.1266,-1.99291 8.0891,-2 2.01502,-0.0149 2.35684,-3.00606 0.55,-4.8129 -3.21969,-3.21969 -16.60025,-0.0699 -22.35343,5.26193 -2.29203,2.12419 -2.37005,2.41864 -0.75197,2.83807 3.90934,1.01337 8.40293,0.61357 14.4663,-1.2871 z m 14.26907,-3.8996 c 0.65323,-1.05694 -2.21302,-3.66359 -3.07768,-2.79893 -0.8332,0.8332 0.37205,3.68563 1.5573,3.68563 0.53481,0 1.21898,-0.39902 1.52038,-0.8867 z m -29.92997,-5.09281 c 3.3,-1.55566 9.04148,-4.19527 12.75886,-5.8658 3.71737,-1.67053 7.02949,-3.74257 7.36025,-4.60454 0.62924,-1.63976 -5.04611,-10.02975 -7.44494,-11.00603 -2.53598,-1.03208 -15.8958,8.62853 -15.14921,10.95454 0.43625,1.35917 -5.56301,8.45458 -7.16798,8.47767 -1.9331,0.0278 -3.0467,2.36576 -2.1901,4.59803 0.7512,1.95745 3.54018,1.35552 11.83312,-2.55387 z m 38.11803,1.78849 c 0.40484,-0.65504 0.28594,-1.34102 -0.26421,-1.5244 -0.55015,-0.18339 -0.7937,-1.74091 -0.54122,-3.46117 0.42356,-2.88592 0.27459,-3.07838 -1.92677,-2.48925 -1.31221,0.35117 -2.94833,0.64464 -3.63583,0.65215 -2.04763,0.0224 -1.4301,2.1121 1.5,5.07606 3.13046,3.16664 3.83433,3.41918 4.86803,1.74661 z m 144.91201,-0.90363 c 1.19367,-3.76092 0.17359,-19.2631 -1.39207,-21.15538 -1.27126,-1.53646 -1.25922,-1.75 0.0986,-1.75 0.85062,0 1.79297,-1.0125 2.0941,-2.25 1.23964,-5.09419 -1.4215,-38.61844 -4.70323,-59.25 -1.74001,-10.93906 -2.95322,33.29308 -1.34399,49 0.28175,2.75 0.83357,5.79323 1.22627,6.76273 0.3927,0.96951 0.26378,2.31951 -0.28649,3 -1.52049,1.88034 -2.49215,12.89984 -1.39249,15.79217 0.61953,1.62948 0.62373,3.16845 0.0116,4.2622 -0.70097,1.25256 -0.38763,2.51284 1.16789,4.69737 2.50985,3.52475 3.61466,3.74253 4.51973,0.89091 z M 256.80863,422.75942 c 0.17403,-1.47616 -0.16347,-2.68393 -0.75,-2.68393 -2.05958,0 -1.08272,-4.05828 1.18358,-4.91706 2.71305,-1.02808 4.32201,0.0757 5.19798,3.56584 0.68981,2.74841 0.35852,2.73608 9.55203,0.35535 10.68796,-2.76774 14.95487,-3.22145 30,-3.18996 9.21436,0.0193 21.57786,0.7267 28,1.60211 14.47836,1.97356 16.60256,2.02057 14.82142,0.32798 -3.44038,-3.26935 -20.34232,-9.77164 -32.30586,-12.42828 -12.35338,-2.74322 -39.77562,-2.15915 -49.68073,1.05814 -2.38416,0.77441 -7.03484,2.21459 -10.33484,3.20041 -6.00779,1.79471 -13.5,5.19238 -13.5,6.12214 0,1.19238 3.51744,6.30333 4.33805,6.30333 0.49876,0 0.29997,0.73122 -0.44174,1.62494 -1.22734,1.47884 -0.86514,1.55844 4.02852,0.8854 4.57255,-0.62889 5.29046,-0.51378 4.79809,0.76933 -0.46385,1.20878 -0.0464,1.36759 2.09903,0.79854 1.93259,-0.51261 2.76612,-1.45743 2.99447,-3.39428 z m 136.14779,318.15171 c -1.14512,-2.23285 -1.1183,-2.25967 0.60946,-0.60945 0.99401,0.9494 1.53303,2.00044 1.19783,2.33564 -0.3352,0.3352 -1.14848,-0.44158 -1.80729,-1.72619 z m -9.83609,-18.75204 c -0.75454,-0.46876 -1.20454,-1.33992 -1,-1.9359 0.22434,-0.6537 0.91617,-0.74547 1.74377,-0.23131 0.75454,0.46876 1.20454,1.33992 1,1.93591 -0.22434,0.65369 -0.91617,0.74546 -1.74377,0.2313 z"
           id="path1" /><path
           d="m 429.96688,358.79749 v -60.58664 h 14.93333 c 5.85955,0 10.83733,0.93867 14.93333,2.816 4.15289,1.82045 7.50933,4.23822 10.06932,7.25333 2.56,3.01511 4.43733,6.31467 5.632,9.89867 1.19467,3.58399 1.792,7.13955 1.792,10.66666 0,4.60799 -0.79644,8.76088 -2.38933,12.45866 -1.59289,3.64089 -3.78311,6.76977 -6.57066,9.38666 -2.73067,2.61689 -5.85956,4.63644 -9.38667,6.05867 -3.52711,1.36533 -7.25333,2.04799 -11.17866,2.04799 z m 4.18133,-4.01066 h 12.544 c 3.64089,0 7.05422,-0.59733 10.23999,-1.792 3.18578,-1.19467 5.97334,-2.92978 8.36267,-5.20533 2.44622,-2.27555 4.352,-5.00622 5.71733,-8.192 1.36533,-3.24267 2.048,-6.912 2.048,-11.00799 0,-3.47022 -0.59733,-6.76978 -1.792,-9.89867 -1.13778,-3.18577 -2.87289,-6.00177 -5.20533,-8.44799 -2.33245,-2.44622 -5.20534,-4.38044 -8.61867,-5.80267 -3.41333,-1.42222 -7.39555,-2.13333 -11.94666,-2.13333 h -11.34933 z m 56.57599,-29.35465 h 4.01066 v 33.36531 h -4.01066 z m -0.85334,-12.288 c 0,-0.79645 0.31289,-1.45067 0.93867,-1.96267 0.62577,-0.56889 1.30844,-0.85333 2.048,-0.85333 0.79644,0 1.47911,0.28444 2.048,0.85333 0.56889,0.512 0.85333,1.16622 0.85333,1.96267 0,0.85333 -0.28444,1.56444 -0.85333,2.13333 -0.56889,0.512 -1.25156,0.768 -2.048,0.768 -0.73956,0 -1.42223,-0.28444 -2.048,-0.85333 -0.62578,-0.56889 -0.93867,-1.25155 -0.93867,-2.048 z m 27.90403,46.33598 c -1.93423,0 -3.95378,-0.34133 -6.05867,-1.024 -2.10489,-0.73955 -3.81155,-1.90577 -5.12,-3.49866 l 1.87734,-2.64534 c 1.13777,1.19467 2.47466,2.16178 4.01066,2.90134 1.59289,0.68267 3.27111,1.024 5.03467,1.024 1.30844,0 2.53155,-0.17067 3.66933,-0.512 1.19467,-0.39823 2.16178,-1.05245 2.90133,-1.96267 0.73955,-0.91022 1.10933,-2.13333 1.10933,-3.66933 0,-1.59289 -0.45511,-2.816 -1.36533,-3.66933 -0.85333,-0.85333 -1.96267,-1.536 -3.328,-2.048 -1.30844,-0.56889 -2.70222,-1.08089 -4.18133,-1.536 -2.44622,-0.79645 -4.46577,-1.87734 -6.05866,-3.24267 -1.536,-1.36533 -2.304,-3.29955 -2.304,-5.80266 0,-1.82045 0.42667,-3.41334 1.28,-4.77867 0.91022,-1.36533 2.13333,-2.41778 3.66933,-3.15733 1.536,-0.79644 3.27111,-1.19466 5.20533,-1.19466 1.76355,0 3.49866,0.28444 5.20533,0.85333 1.76355,0.56889 3.35644,1.536 4.77867,2.90133 l -1.792,2.816 c -0.91023,-1.25155 -2.13334,-2.10489 -3.66934,-2.56 -1.47911,-0.45511 -2.78755,-0.71111 -3.92533,-0.768 -0.96711,0 -1.99111,0.19911 -3.072,0.59733 -1.024,0.39823 -1.90578,0.99556 -2.64533,1.792 -0.68267,0.73956 -1.024,1.73512 -1.024,2.98667 0,1.30844 0.36978,2.38933 1.10933,3.24266 0.73956,0.79645 1.67823,1.45067 2.816,1.96267 1.19467,0.512 2.41778,0.99556 3.66934,1.45067 1.64977,0.512 3.18577,1.13778 4.60799,1.87733 1.47911,0.68267 2.67378,1.62133 3.584,2.816 0.96711,1.13777 1.45067,2.67377 1.45067,4.608 0,1.93422 -0.42667,3.69777 -1.28,5.29066 -0.85333,1.536 -2.13333,2.75911 -3.84,3.66933 -1.64978,0.85333 -3.75467,1.28 -6.31466,1.28 z m 38.05864,0 c -3.47022,0 -6.54222,-0.768 -9.21599,-2.304 -2.67378,-1.536 -4.77867,-3.61244 -6.31467,-6.22933 -1.47911,-2.67377 -2.21866,-5.66044 -2.21866,-8.95999 0,-3.24267 0.79644,-6.20089 2.38933,-8.87467 1.59289,-2.67377 3.72622,-4.80711 6.4,-6.4 2.73066,-1.59289 5.74577,-2.38933 9.04533,-2.38933 3.98222,0 7.31022,1.16622 9.98399,3.49867 2.73067,2.33244 4.69333,5.37599 5.888,9.13066 l -29.18399,11.264 -1.19466,-2.90134 26.70932,-10.41066 -0.85334,1.19467 c -0.96711,-2.27555 -2.44622,-4.23822 -4.43733,-5.888 -1.93422,-1.64978 -4.32355,-2.47467 -7.16799,-2.47467 -2.56,0 -4.864,0.62578 -6.912,1.87734 -2.048,1.25155 -3.69778,2.92977 -4.94933,5.03466 -1.19467,2.10489 -1.792,4.49422 -1.792,7.168 0,2.50311 0.56889,4.83555 1.70666,6.99733 1.19467,2.16177 2.84445,3.89688 4.94934,5.20533 2.10489,1.30845 4.52266,1.96267 7.25333,1.96267 1.82044,0 3.55555,-0.34133 5.20533,-1.024 1.70667,-0.68267 3.21422,-1.56445 4.52266,-2.64534 l 2.048,2.90134 c -1.59289,1.25155 -3.44177,2.27555 -5.54666,3.072 -2.048,0.79644 -4.15289,1.19466 -6.31467,1.19466 z m 30.54929,-34.04798 0.42666,10.49599 -0.51199,-2.048 c 0.96711,-2.90133 2.78755,-5.17689 5.46133,-6.82666 2.73066,-1.70667 5.74577,-2.56 9.04533,-2.56 3.12889,0 5.66044,0.93867 7.59466,2.816 1.93422,1.82044 2.92977,4.20977 2.98666,7.168 v 24.31998 h -4.09599 v -23.21065 c -0.0569,-2.16178 -0.73953,-3.95378 -2.048,-5.376 -1.30845,-1.42222 -3.21422,-2.16178 -5.71733,-2.21867 -2.21867,0 -4.29511,0.54045 -6.22933,1.62134 -1.93423,1.08089 -3.49867,2.58844 -4.69334,4.52266 -1.13777,1.93422 -1.70666,4.18133 -1.70666,6.74133 v 17.91999 h -4.01067 v -33.36531 z m 17.15199,-5.46134 c -1.70667,0 -3.10044,-0.39822 -4.18133,-1.19466 -1.024,-0.85333 -1.99111,-1.76356 -2.90133,-2.73067 -0.73956,-0.73955 -1.50756,-1.42222 -2.304,-2.048 -0.73955,-0.68267 -1.62133,-1.024 -2.64533,-1.024 -0.68267,0 -1.36533,0.256 -2.048,0.768 -0.62578,0.45511 -1.16623,1.22311 -1.62134,2.304 -0.45511,1.024 -0.71111,2.44622 -0.768,4.26667 l -2.55999,-0.0853 c -0.0569,-2.21866 0.22758,-4.09599 0.85333,-5.63199 0.68267,-1.59289 1.56444,-2.78756 2.64533,-3.584 1.08089,-0.79645 2.304,-1.19467 3.66933,-1.19467 1.536,0 2.816,0.42667 3.84,1.28 1.024,0.79645 1.96267,1.64978 2.816,2.56 0.73955,0.85333 1.50755,1.62133 2.304,2.304 0.79645,0.68267 1.73511,1.024 2.816,1.024 1.13777,0 2.07644,-0.56889 2.816,-1.70667 0.79644,-1.13777 1.25155,-3.07199 1.36533,-5.80266 l 2.56,0.0853 c 0.0569,2.27555 -0.22758,4.20978 -0.85333,5.80267 -0.56889,1.536 -1.36534,2.70222 -2.38934,3.49866 -1.024,0.73955 -2.16178,1.10933 -3.41333,1.10933 z m 19.79724,21.93066 c 0,-3.24267 0.768,-6.20089 2.304,-8.87466 1.59289,-2.67378 3.72623,-4.77867 6.4,-6.31467 2.73067,-1.59289 5.77422,-2.38933 9.13066,-2.38933 3.41333,0 6.45689,0.79644 9.13067,2.38933 2.67377,1.536 4.77866,3.64089 6.31466,6.31467 1.536,2.67377 2.304,5.63199 2.304,8.87466 0,3.24267 -0.768,6.20089 -2.304,8.87466 -1.536,2.67378 -3.66933,4.80711 -6.4,6.4 -2.67377,1.536 -5.68888,2.304 -9.04533,2.304 -3.41333,0 -6.45688,-0.73955 -9.13066,-2.21866 -2.67377,-1.536 -4.80711,-3.61245 -6.4,-6.22934 -1.536,-2.67377 -2.304,-5.71733 -2.304,-9.13066 z m 4.01067,0.0853 c 0,2.61689 0.59733,5.00622 1.792,7.16799 1.25155,2.10489 2.90133,3.78311 4.94933,5.03467 2.10489,1.25155 4.43733,1.87733 6.99733,1.87733 2.56,0 4.864,-0.62578 6.912,-1.87733 2.10489,-1.25156 3.75466,-2.92978 4.94933,-5.03467 1.25155,-2.16177 1.87733,-4.5511 1.87733,-7.16799 0,-2.61689 -0.62578,-4.97778 -1.87733,-7.08267 -1.19467,-2.16177 -2.84444,-3.86844 -4.94933,-5.12 -2.048,-1.30844 -4.352,-1.96266 -6.912,-1.96266 -2.61689,0 -4.97777,0.68267 -7.08266,2.048 -2.048,1.30844 -3.66933,3.04355 -4.864,5.20533 -1.19467,2.16177 -1.792,4.46577 -1.792,6.912 z m 88.49048,-16.55466 12.62933,28.41598 -0.93867,0.0853 12.20266,-28.50132 h 4.096 l -15.70133,35.41331 -10.75199,-23.72265 -9.81333,23.72265 -15.70133,-35.41331 h 4.01067 l 12.88533,29.01332 -1.45067,-0.42667 8.53333,-20.65066 -3.66933,-7.93599 z m 52.05346,34.04798 c -3.47022,0 -6.54222,-0.768 -9.21599,-2.304 -2.67378,-1.536 -4.77867,-3.61244 -6.31467,-6.22933 -1.47911,-2.67377 -2.21866,-5.66044 -2.21866,-8.95999 0,-3.24267 0.79644,-6.20089 2.38933,-8.87467 1.59289,-2.67377 3.72622,-4.80711 6.4,-6.4 2.73067,-1.59289 5.74578,-2.38933 9.04533,-2.38933 3.98222,0 7.31022,1.16622 9.98399,3.49867 2.73067,2.33244 4.69333,5.37599 5.888,9.13066 l -29.18399,11.264 -1.19466,-2.90134 26.70932,-10.41066 -0.85333,1.19467 c -0.96711,-2.27555 -2.44623,-4.23822 -4.43734,-5.888 -1.93422,-1.64978 -4.32355,-2.47467 -7.16799,-2.47467 -2.56,0 -4.864,0.62578 -6.912,1.87734 -2.048,1.25155 -3.69778,2.92977 -4.94933,5.03466 -1.19467,2.10489 -1.792,4.49422 -1.792,7.168 0,2.50311 0.56889,4.83555 1.70667,6.99733 1.19466,2.16177 2.84444,3.89688 4.94933,5.20533 2.10489,1.30845 4.52266,1.96267 7.25333,1.96267 1.82044,0 3.55555,-0.34133 5.20533,-1.024 1.70667,-0.68267 3.21422,-1.56445 4.52266,-2.64534 l 2.048,2.90134 c -1.59289,1.25155 -3.44177,2.27555 -5.54666,3.072 -2.048,0.79644 -4.15289,1.19466 -6.31467,1.19466 z m 45.73862,0 c -3.41333,0 -6.54222,-0.88178 -9.38667,-2.64533 -2.78755,-1.76355 -4.83555,-3.98222 -6.14399,-6.656 l 0.85333,-2.304 v 10.92266 h -4.01067 v -64.8533 h 4.01067 v 41.30131 l -0.512,-2.21866 c 1.30845,-2.61689 3.38489,-4.69333 6.22933,-6.22933 2.84445,-1.59289 5.97333,-2.38933 9.38666,-2.38933 3.12889,0 5.97333,0.768 8.53333,2.30399 2.56,1.47911 4.57956,3.52711 6.05867,6.144 1.536,2.61689 2.304,5.60355 2.304,8.96 0,3.75467 -0.79645,6.96889 -2.38934,9.64266 -1.59289,2.61689 -3.69777,4.608 -6.31466,5.97333 -2.61689,1.36533 -5.48977,2.048 -8.61866,2.048 z m -0.68267,-3.49866 c 2.84445,0 5.29067,-0.59733 7.33866,-1.792 2.10489,-1.25156 3.72623,-2.92978 4.864,-5.03467 1.13778,-2.16177 1.70667,-4.60799 1.70667,-7.33866 0,-2.56 -0.59733,-4.89244 -1.792,-6.99733 -1.13778,-2.16178 -2.75911,-3.86845 -4.864,-5.12 -2.048,-1.30845 -4.46578,-1.96267 -7.25333,-1.96267 -2.33245,0 -4.49422,0.48356 -6.48533,1.45067 -1.93422,0.96711 -3.55555,2.27556 -4.864,3.92533 -1.30844,1.64978 -2.19022,3.55556 -2.64533,5.71733 v 5.20533 c 0.22755,2.10489 0.96711,4.06756 2.21867,5.888 1.25155,1.82045 2.90133,3.29956 4.94933,4.43733 2.048,1.08089 4.32355,1.62134 6.82666,1.62134 z"
           id="text2"
           style="font-weight:300;font-size:85.3333px;font-family:'Josefin Sans';-inkscape-font-specification:'Josefin Sans, Light';white-space:pre;shape-padding:13.1783;fill:url(#linearGradient71);fill-opacity:1;fill-rule:evenodd"
           transform="translate(-222.11851,536.21681)"
           aria-label="Diseño web" /></g></g></g></svg>
