<?xml version="1.0" encoding="UTF-8" standalone="no"?>
<!-- Created with Inkscape (http://www.inkscape.org/) -->

<svg
   width="98.519073mm"
   height="154.16258mm"
   viewBox="0 0 372.35556 582.66174"
   version="1.1"
   id="svg1"
   xml:space="preserve"
   xmlns:xlink="http://www.w3.org/1999/xlink"
   xmlns="http://www.w3.org/2000/svg"
   xmlns:svg="http://www.w3.org/2000/svg"><defs
     id="defs1"><linearGradient
       id="linearGradient45"><stop
         style="stop-color:#ffffff;stop-opacity:1;"
         offset="0"
         id="stop45" /><stop
         style="stop-color:#008080;stop-opacity:1;"
         offset="1"
         id="stop46" /></linearGradient><rect
       x="407.14636"
       y="270.95303"
       width="560.69739"
       height="442.95685"
       id="rect2-0" /><linearGradient
       xlink:href="#linearGradient45"
       id="linearGradient46"
       x1="1453.1086"
       y1="81.353638"
       x2="1453.1086"
       y2="667.30811"
       gradientUnits="userSpaceOnUse" /><linearGradient
       xlink:href="#linearGradient45"
       id="linearGradient47"
       gradientUnits="userSpaceOnUse"
       x1="1453.1086"
       y1="81.353638"
       x2="1453.1086"
       y2="667.30811"
       gradientTransform="translate(116.83,0.74414015)" /><linearGradient
       xlink:href="#linearGradient45"
       id="linearGradient48"
       gradientUnits="userSpaceOnUse"
       x1="1453.1086"
       y1="81.353638"
       x2="1453.1086"
       y2="667.30811" /></defs><g
     id="layer1"
     transform="translate(-737.52782,693.50226)"><g
       id="g4"
       transform="translate(-539.43362,-777.2464)"
       style="fill:url(#linearGradient46)"><path
         style="fill:url(#linearGradient47)"
         d="m 1508.1031,658.40588 c -4.1759,-4.4 -8.0164,-8 -8.5344,-8 -0.5315,0 -0.6473,1.34092 -0.2657,3.07817 1.0604,4.82794 -0.2119,9.46172 -2.9392,10.70433 -3.3928,1.54586 -9.0868,-0.41157 -11.8558,-4.07568 -1.2222,-1.6173 -3.3601,-4.35046 -4.7509,-6.07369 -5.5245,-6.84481 -16.216,-25.10631 -21.4475,-36.63313 -1.6226,-3.575 -5.2477,-11 -8.0559,-16.5 -4.4744,-8.76323 -5.393,-9.95837 -7.4271,-9.66339 -1.7769,0.25768 -2.1784,-0.0355 -1.7124,-1.25 0.3349,-0.87264 0.2049,-1.58661 -0.2889,-1.58661 -0.4938,0 -3.43,-7.7625 -6.525,-17.25 -3.095,-9.4875 -6.9519,-20.0637 -8.5709,-23.50267 -1.6189,-3.43897 -2.9436,-6.56205 -2.9436,-6.94018 0,-0.37813 -1.3,-3.41443 -2.8889,-6.74733 -5.9466,-12.47393 -11.1111,-23.6874 -11.1111,-24.12534 0,-0.45341 -5.7686,-13.91229 -12.4017,-28.93448 -3.4326,-7.77387 -5.411,-9.70174 -7.8963,-7.69427 -0.6611,0.53398 -4.352,1.87571 -8.202,2.98161 -3.85,1.10591 -13.525,4.03895 -21.5,6.51787 -7.975,2.47892 -16.075,4.82631 -18,5.21643 -1.925,0.39012 -3.95,1.04778 -4.5,1.46149 -1.3937,1.04833 -15.8298,2.21126 -17.8459,1.43762 -2.1885,-0.83981 -2.122,-4.15361 0.096,-4.78103 0.9625,-0.27228 4.225,-0.80299 7.25,-1.17936 6.9566,-0.86553 8.2498,-1.81809 6.7969,-5.00669 -1.5242,-3.34536 4e-4,-4.84215 7.771,-7.62897 3.5376,-1.26875 6.4321,-2.64834 6.4321,-3.06576 0,-0.41742 0.4502,-0.75894 1.0005,-0.75894 0.8717,0 5.0217,-2.79127 24.2753,-16.32718 7.8243,-5.50071 8.2356,-6.6285 4.9866,-13.67282 -4.187,-9.07811 -7.4459,-16.65439 -9.8933,-23 -1.3788,-3.575 -4.0827,-10.3663 -6.0087,-15.09177 -1.926,-4.72548 -3.6378,-9.67548 -3.804,-11 -0.1662,-1.32453 -1.9344,-5.89764 -3.9293,-10.16246 -1.9949,-4.26483 -3.6271,-8.68191 -3.6271,-9.81574 0,-1.13383 -0.5491,-3.04443 -1.2203,-4.24577 -1.6973,-3.03821 -3.7496,-8.88653 -3.7493,-10.68426 2e-4,-1.33334 0.1079,-1.33334 0.9696,0 0.7044,1.08996 0.9736,1.14217 0.9847,0.19098 0.035,-3.03099 1.9701,0.24788 3.0845,5.22775 0.7967,3.55987 2.3564,6.67872 4.6024,9.20333 2.5353,2.84975 3.3251,4.5799 3.1129,6.81862 -0.216,2.2772 0.1723,3.09174 1.6114,3.38104 1.5048,0.3025 1.7393,-8e-4 1.1367,-1.4703 -0.4176,-1.01828 -0.8776,-3.42642 -1.0223,-5.35142 -0.3295,-4.38394 -6.3812,-22.28043 -10.6597,-31.52387 -1.776,-3.83687 -3.1439,-7.31363 -3.0398,-7.72613 0.462,-1.83127 -1.5975,-0.51351 -2.5851,1.654 -0.9053,1.98685 -0.7596,2.70783 0.8395,4.15498 2.574,2.32948 2.5367,5.44102 -0.065,5.44102 -1.1,0 -2,-0.6199 -2,-1.37756 0,-0.75765 -0.6186,-1.8909 -1.3745,-2.51831 -1.6429,-1.36342 -2.7899,-9.08252 -2.7207,-18.30899 0.028,-3.68767 -0.3896,-6.97673 -0.9273,-7.30902 -1.337,-0.82632 -1.2382,-3.48612 0.1295,-3.48612 0.6088,0 0.8479,0.675 0.5313,1.5 -0.3615,0.9422 0.01,1.5 1,1.5 1.026,0 1.3639,-0.55186 0.9687,-1.58179 -0.3339,-0.86998 -0.607,-2.17184 -0.607,-2.89301 0,-1.85246 -3.1752,-2.85289 -4.1548,-1.30907 -0.5991,0.94427 -0.8187,0.82097 -0.8299,-0.46613 -0.01,-0.9625 0.4551,-1.75 1.03,-1.75 0.6524,0 0.7993,-1.31148 0.3907,-3.48944 -0.4938,-2.63219 -0.2812,-3.63273 0.8653,-4.07272 1.1055,-0.42419 1.44,-1.76499 1.2267,-4.91617 -0.3379,-4.99113 -1.0624,-6.52167 -3.0871,-6.52167 -1.8222,0 -1.8052,0.47928 0.2034,5.73886 0.9044,2.36815 1.3844,4.56575 1.0666,4.88357 -0.9474,0.94736 -2.7084,-0.61298 -2.7442,-2.43145 -0.018,-0.93004 -0.9009,-2.73187 -1.9614,-4.00407 l -1.9281,-2.31309 -7.2886,1.98773 c -19.2547,5.2511 -33.2905,5.65717 -41.7886,1.209 -1.6663,-0.87218 -3.4765,-11.036 -2.5927,-14.55725 0.8242,-3.28399 6.3421,-9.66297 13.5927,-15.71384 10.093,-8.42303 14.8677,-11.34086 25.0601,-15.3144 5.1919,-2.0241 9.8899,-4.03499 10.4399,-4.46865 1.86,-1.4666 20.9297,-4.08653 32.654,-4.48623 15.029,-0.51238 33.1839,2.27813 42.5851,6.54558 2.3315,1.05833 4.4289,1.92424 4.6608,1.92424 2.3366,0 25.4319,12.56347 30.3694,16.52044 5.9422,4.76208 26.4879,14.48274 27.9967,13.24587 0.9881,-0.80998 1.1275,-6.00268 0.635,-23.65207 -0.3471,-12.43784 -1.0249,-23.36396 -1.5063,-24.28028 -0.4814,-0.91632 -0.5899,-3.16632 -0.2411,-5 0.3488,-1.83368 0.7873,-13.00896 0.9745,-24.83396 0.1872,-11.825 0.3882,-22.175 0.4466,-23 0.2862,-4.03983 -1.3384,-38.47105 -2.1427,-45.41282 -0.5267,-4.54633 -1.5702,-8.63494 -2.4528,-9.61014 -1.1444,-1.26455 -1.2959,-2.329 -0.5942,-4.17463 1.056,-2.77754 -0.4473,-11.80241 -1.966,-11.80241 -0.5055,0 -0.9194,-0.7875 -0.9198,-1.75 -5e-4,-0.9625 -1.3504,-4.602913 -3,-8.089793 -3.5121,-7.42387 -3.7364,-9.79147 -1.0097,-10.65688 5.0278,-1.59578 12.0544,8.62805 13.6699,19.890223 0.3072,2.14145 2.3419,9.11645 4.5217,15.5 2.1797,6.38354 3.9593,12.38509 3.9546,13.33676 0,0.95167 0.4129,1.99072 0.9279,2.30901 0.515,0.31829 0.9364,1.40048 0.9364,2.40486 0,1.00438 0.643,4.01532 1.4288,6.69098 1.876,6.38718 4.2109,14.79253 7.1848,25.86484 1.3296,4.95 3.2576,11.7 4.2846,15 1.0269,3.3 3.0893,10.05 4.5831,15 3.56,11.7969 13.4625,41.49312 17.8401,53.5 1.905,5.225 5.2655,14.45 7.4678,20.5 4.2551,11.68905 14.716,38.34034 18.6443,47.5 1.2973,3.025 4.318,10.19765 6.7126,15.93922 2.3946,5.74158 6.3789,14.51658 8.8539,19.5 l 4.5,9.06078 7,2.17958 c 3.85,1.19877 11.05,3.407 16,4.90717 9.0311,2.737 17.3917,6.10579 31.6765,12.76363 4.2221,1.96782 11.8377,4.74779 16.9234,6.17771 14.2578,4.00876 20.5283,7.88168 19.2746,11.90495 -0.8889,2.85263 -2.2321,3.53959 -6.8745,3.51602 -6.7982,-0.0345 -27.163,-6.0199 -31.1936,-9.16807 -2.0119,-1.57138 -11.3645,-3.74401 -20.3064,-4.71724 -4.675,-0.50882 -10.3,-1.19702 -12.5,-1.52932 -6.1485,-0.92871 -7.2145,0.34102 -4.711,5.611 1.1377,2.39501 4.1435,9.07957 6.6794,14.85457 2.536,5.775 5.0306,11.4 5.5436,12.5 0.5131,1.1 1.797,4.25 2.8533,7 1.0563,2.75 3.0937,7.55866 4.5276,10.68592 1.4339,3.12726 2.6071,5.94434 2.6071,6.26018 0,1.6305 11.535,23.56805 14.0629,26.74526 1.6154,2.03025 2.946,4.05525 2.957,4.5 0.018,0.73492 4.6346,7.97816 9.3403,14.65472 2.512,3.56408 1.5436,7.65392 -1.8123,7.65392 -2.7192,0 -6.6621,-4.47567 -13.2143,-15 -2.2257,-3.575 -5.4648,-8.75 -7.198,-11.5 -1.7332,-2.75 -3.852,-6.51827 -4.7086,-8.37394 -0.8566,-1.85566 -4.6781,-9.84826 -8.4922,-17.76134 -3.8142,-7.91307 -6.9348,-14.57182 -6.9348,-14.79721 0,-0.22539 -2.4223,-5.50779 -5.383,-11.73866 -2.9606,-6.23087 -7.6531,-16.13315 -10.4278,-22.00507 -2.7753,-5.87309 -5.9476,-11.1593 -7.0514,-11.75 -2.8895,-1.54645 -7.1058,-1.32073 -7.7723,0.41609 -0.9054,2.3595 7.0261,24.39716 10.621,29.51013 0.9667,1.375 2.914,5.875 4.3273,10 5.9402,17.33742 8.3721,22.37255 11.5273,23.86685 2.8073,1.3295 2.9151,1.57559 1.5815,3.61095 -1.2615,1.9253 -1.2054,2.82657 0.474,7.6032 1.6627,4.72936 5.1396,13.06135 8.1034,19.419 0.5128,1.1 2.0574,4.60929 3.4325,7.79842 2.7773,6.44092 6.21,11.70158 7.6356,11.70158 0.5125,0 0.9419,-1.6875 0.9541,-3.75 l 0.022,-3.75 1.9161,2.494 c 2.5671,3.34135 4.257,9.70834 3.862,14.55106 -0.2753,3.37527 -0.6907,3.99794 -2.8343,4.24837 -3.3299,0.38901 -7.6446,-4.20059 -12.4974,-13.29343 -4.0773,-7.63996 -10.7761,-23.41215 -16.5641,-39 -1.2254,-3.3 -4.1855,-8.58856 -6.5781,-11.75236 -2.3926,-3.16379 -4.4624,-6.2981 -4.5995,-6.96513 -0.137,-0.66703 -0.997,-1.90347 -1.911,-2.74765 -0.914,-0.84417 -4.5064,-7.04736 -7.9832,-13.78486 -3.4767,-6.7375 -6.8914,-12.25 -7.5881,-12.25 -1.2537,0 -1.7575,-2.17608 -0.7395,-3.19405 0.2901,-0.29007 2.3248,-0.19872 4.5216,0.20299 2.1967,0.40171 4.2458,0.32309 4.5535,-0.17472 0.5315,-0.86004 -1.8211,-7.59373 -5.7068,-16.33422 -0.9781,-2.2 -2.0689,-5.19913 -2.424,-6.66472 -0.791,-3.26439 -3.6929,-4.47886 -12.7925,-5.35381 -6.1295,-0.58936 -6.8704,-0.46636 -7.3097,1.21367 -0.2689,1.02822 -1.7435,2.42483 -3.2769,3.10359 -1.5334,0.67875 -5.6203,3.81421 -9.0819,6.96768 -3.4617,3.15347 -11.0366,9.55859 -16.8331,14.23359 -6.5869,5.31243 -10.7805,9.43751 -11.1827,11 -0.354,1.375 -0.068,13.3 0.6362,26.5 0.7038,13.2 1.4023,32.775 1.552,43.5 0.2388,17.09748 0.046,20.02362 -1.5639,23.75 -1.3604,3.14844 -2.4043,4.25 -4.0277,4.25 -2.9166,0 -4.5915,-1.82389 -4.5915,-5 0,-3.03229 1.6529,-5 4.2,-5 1.8315,0 2.5893,-3.39416 0.98,-4.38878 -0.451,-0.27875 -0.9072,-12.56781 -1.0137,-27.30902 -0.2107,-29.1773 -0.7748,-38.47809 -2.6678,-43.98423 l -1.2339,-3.58928 -1.1016,4.88565 c -0.6059,2.68711 -1.4067,7.13566 -1.7795,9.88566 -0.3728,2.75 -1.5436,7.02441 -2.6017,9.4987 -1.6237,3.79663 -2.0755,4.22786 -2.8951,2.76325 -0.613,-1.0954 -0.6235,-2.38576 -0.028,-3.4987 1.1897,-2.2249 1.2243,-8.52236 0.057,-10.36604 -0.4866,-0.76847 -0.9291,-0.94721 -0.9833,-0.39721 -0.054,0.55 -0.2892,1.9 -0.5221,3 -1.3828,6.5318 -1.5256,10.91539 -0.4226,12.97641 0.9025,1.68625 0.9321,2.80555 0.1148,4.33285 -1.6136,3.01498 -1.3467,6.29142 0.6303,7.73702 1.5553,1.13731 1.6003,1.76067 0.4398,6.09972 -1.8568,6.94208 -3.4172,9.77749 -5.6137,10.20051 -4.9538,0.954 -5.6923,-7.43562 -2.9694,-33.73117 1.8381,-17.74981 1.5512,-18.57256 -5.0431,-14.46552 -2.2253,1.38598 -5.3345,3.26925 -6.9092,4.18507 -1.5748,0.91581 -6.4424,3.80261 -10.8171,6.41511 -4.3746,2.6125 -8.4331,4.75 -9.0188,4.75 -2.1852,0 -7.8009,4.22518 -7.8009,5.86928 0,0.93839 1.6172,5.51419 3.5939,10.16844 1.9766,4.65425 4.7179,11.16228 6.0918,14.46228 2.4079,5.78378 7.6026,17.22787 11.1209,24.5 0.9314,1.925 4.1387,7.29509 7.1274,11.93354 6.884,10.68386 12.066,21.16662 12.066,24.40842 0,2.56361 -4.0529,6.65804 -6.5905,6.65804 -1.0924,0 -1.0944,0.64839 -0.011,3.75 0.7203,2.0625 1.633,5.55 2.0281,7.75 0.395,2.2 1.7443,6.25 2.9982,9 1.254,2.75 3.3398,7.475 4.6351,10.5 2.435,5.68635 8.8153,16.24678 10.1702,16.83333 0.4234,0.18333 0.7739,0.85833 0.7788,1.5 0.01,0.64167 2.1424,3.71358 4.75,6.82648 2.6076,3.1129 7.3241,8.9629 10.4811,13 6.5125,8.32812 9.9228,12.19797 20.1276,22.84019 8.7655,9.14121 12.6324,14.26341 12.6324,16.73327 0,1.93613 -1.7725,4.26673 -3.2451,4.26673 -0.4648,0 -4.2617,-3.6 -8.4376,-8 z m -15.7818,-7.75 c -0.3823,-3.1625 -1.5591,-7.23823 -2.6153,-9.05716 -1.0561,-1.81894 -1.9202,-3.75734 -1.9202,-4.30756 0,-0.55022 -2.7443,-4.237 -6.0985,-8.19284 -8.0321,-9.47294 -21.9079,-30.54664 -27.4642,-41.71095 -2.4405,-4.90377 -4.4373,-9.14236 -4.4373,-9.41909 0,-0.27672 -1.0595,-2.87897 -2.3544,-5.78277 -2.8638,-6.42171 -2.9672,-6.68656 -7.7176,-19.77963 -7.8337,-21.59092 -8.7079,-23.54974 -11.9383,-26.75 -3.7821,-3.74674 -6.7197,-4.48267 -4.9897,-1.25 0.5887,1.1 0.8497,2 0.58,2 -0.6509,0 3.8421,11.87032 7.3643,19.45583 1.5435,3.32429 3.5014,7.61917 4.3508,9.54417 3.0328,6.873 8.4177,18.60588 11.4739,25 1.7088,3.575 6.074,12.8 9.7005,20.5 3.6264,7.7 7.016,14.675 7.5324,15.5 0.5164,0.825 2.3778,4.425 4.1363,8 6.65,13.51846 20.3263,32 23.68,32 1.1332,0 1.2749,-1.13622 0.7173,-5.75 z M 1367.6287,466.73656 c 1.4614,-0.36343 4.0818,-1.45758 5.8231,-2.43143 10.005,-5.59564 12.6276,-8.58076 9.6846,-11.02326 -1.1505,-0.95484 -1.9909,-0.7597 -4.1468,0.96283 -1.4871,1.1882 -5.4038,4.04831 -8.7038,6.35579 -6.4711,4.52485 -8.5,6.27707 -8.5,7.34095 0,0.37313 0.7168,0.40335 1.5929,0.0672 0.8761,-0.33619 2.7886,-0.90861 4.25,-1.27204 z m 54.4647,-15.65894 c 2.3058,-1.28054 10.499,-5.77543 18.2071,-9.98865 18.186,-9.94039 19.8896,-11.51453 21.3336,-19.71214 0.7257,-4.11969 0.7824,-6.74027 0.1594,-7.36328 -1.4175,-1.41751 -5.6532,1.15691 -9.1337,5.55147 -1.6242,2.05076 -5.1112,5.31281 -7.7488,7.24901 -2.6377,1.9362 -6.5574,5.14632 -8.7105,7.1336 -2.153,1.98728 -8.0772,6.52535 -13.1647,10.08461 -9.0139,6.30623 -11.3675,9.37364 -7.1924,9.37364 1.1316,0 3.9441,-1.04772 6.25,-2.32826 z m -37.6409,-13.17174 c 0,-0.825 -0.375,-1.5 -0.8333,-1.5 -0.4584,0 -0.8334,0.675 -0.8334,1.5 0,0.825 0.375,1.5 0.8334,1.5 0.4583,0 0.8333,-0.675 0.8333,-1.5 z m 175.2647,-3.2298 c -0.7855,-1.52361 -1.7916,-3.03734 -2.2358,-3.36384 -0.4442,-0.3265 -1.0248,-2.34449 -1.2902,-4.48442 -0.5969,-4.81277 -3.1653,-9.06199 -4.6064,-7.62091 -1.0593,1.05929 0.7037,8.1914 2.0286,8.20677 1.0156,0.0118 3.1724,5.10509 3.1724,7.49156 0,2.70849 2.0533,4.84741 3.3798,3.52084 0.6397,-0.63972 0.4841,-1.94128 -0.4484,-3.75 z m -141.7836,-2.98983 c 4.0437,-3.1458 7.9707,-6.31966 8.7267,-7.05303 0.7559,-0.73336 6.8309,-5.90898 13.5,-11.50137 17.1175,-14.35403 26.6255,-23.82081 26.6255,-26.50997 0,-1.2188 -0.4357,-2.216 -0.9682,-2.216 -1.2568,0 -24.7514,17.96157 -38.5874,29.5 -16.9362,14.12385 -20.4444,17.55068 -20.4444,19.97017 0,5.15661 2.2802,4.70871 11.1478,-2.1898 z m -39.5825,-10.49068 c -0.8609,-1.22909 -1.5653,-3.25958 -1.5653,-4.5122 0,-1.25262 -0.45,-2.27749 -1,-2.27749 -0.55,0 -0.9467,-0.3375 -0.8815,-0.75 0.3459,-2.19117 -0.2961,-4.28474 -1.7641,-5.75281 -0.9051,-0.90511 -1.7697,-2.77513 -1.9212,-4.15559 -0.1516,-1.38047 -0.986,-3.295 -1.8544,-4.25451 -0.8683,-0.95952 -1.5788,-2.24592 -1.5788,-2.85867 0,-0.61276 -1.0074,-2.82159 -2.2387,-4.90852 -2.9745,-5.0413 -3.732,-1.92685 -0.9695,3.98564 1.0779,2.30695 2.2753,5.6518 2.661,7.43299 0.3856,1.78119 1.1165,3.49525 1.6242,3.80902 0.5077,0.31376 0.923,1.38324 0.923,2.3766 0,0.99337 0.8853,2.93156 1.9673,4.30708 1.082,1.37552 1.7194,2.7488 1.4164,3.05175 -0.749,0.74901 3.3932,9.95856 4.9052,10.90582 1.884,1.18037 2.099,-3.79694 0.2764,-6.39911 z m 31.0047,-0.0938 c 2.1615,-1.81727 6.63,-5.3648 9.93,-7.8834 3.3,-2.5186 7.2911,-5.78494 8.8692,-7.25853 1.578,-1.47359 4.503,-3.7891 6.5,-5.14558 6.0273,-4.09413 9.4751,-6.74411 13.2144,-10.15656 1.9576,-1.78652 5.7772,-4.80797 8.4879,-6.71435 8.1704,-5.74609 10.4285,-7.70096 10.4285,-9.02808 0,-0.69603 -2.6428,-2.25385 -5.8729,-3.46183 -4.7291,-1.76858 -8.0731,-2.20625 -17.1709,-2.24737 -10.4614,-0.0473 -11.4704,-0.22353 -13.6271,-2.38016 -4.8662,-4.86621 -1.1341,-9.25769 6.8042,-8.0064 2.4903,0.39254 4.0026,0.12758 4.8075,-0.84228 1.9141,-2.30631 8.6181,-2.99374 11.2459,-1.15316 2.3204,1.62533 9.2061,1.96889 13.8058,0.68885 2.1118,-0.58768 2.6091,-1.5039 3.256,-5.9989 1.4693,-10.20999 -1.5307,-20.34344 -9.4337,-31.86456 -2.9285,-4.26922 -6.8798,-6.84237 -14.9718,-9.74971 -2.3886,-0.85821 -9.293,-3.321 -15.343,-5.47286 -19.5004,-6.93589 -18.0059,-6.3226 -39.5,-16.20987 -9.0167,-4.14771 -14.6354,-6.45472 -18,-7.39074 -1.375,-0.38252 -3.5581,-1.52177 -4.8514,-2.53165 -1.2933,-1.00989 -3.9933,-2.13209 -6,-2.49378 -2.0067,-0.36169 -4.0986,-0.93431 -4.6486,-1.27249 -0.55,-0.33818 -3.475,-1.12253 -6.5,-1.74301 -5.793,-1.18825 -10,-0.40017 -10,1.8733 0,2.02434 2.9517,5.74726 4.5567,5.74726 1.7285,0 1.8653,1.17807 0.3165,2.7268 -0.8357,0.83573 -0.5563,2.0498 1.0816,4.7 1.2146,1.96526 2.6216,3.5732 3.1268,3.5732 0.5051,0 0.9184,1.38707 0.9184,3.08238 0,1.69532 1.35,6.15824 3,9.91762 1.65,3.75937 3,7.12199 3,7.47247 0,0.35049 0.8421,2.52507 1.8713,4.83239 5.0417,11.30252 12.0312,29.12118 13.6094,34.69514 0.6954,2.45634 8.4929,22.61665 11.023,28.5 0.7095,1.65 2.7366,6.6 4.5047,11 1.768,4.4 4.3334,10.475 5.7009,13.5 4.4489,9.84112 5.2907,11.79488 5.2907,12.279 0,0.26221 0.6811,2.1067 1.5135,4.09887 1.9018,4.55167 3.936,4.6231 9.0565,0.31799 z m 78.7757,-10.9285 c 1.7349,-1.22795 7.1997,-5.84045 12.1441,-10.25 17.0833,-15.23533 17.3627,-16.39002 4.5102,-18.63905 -20.0139,-3.5022 -20.0576,-3.49943 -22.7609,1.44256 -1.4167,2.58983 -1.7069,5.44463 -1.5654,15.40112 0.096,6.7221 0.4596,12.6846 0.809,13.25 1.0104,1.63478 3.4584,1.20508 6.863,-1.20463 z m 64.5194,-31.10478 c 1.5336,-1.84783 -2.6322,-5.67929 -6.4748,-5.95511 -2.4716,-0.17742 -2.8903,0.15465 -2.8903,2.29253 0,1.96313 0.7516,2.75631 3.5,3.69355 4.5243,1.54287 4.5591,1.54268 5.8651,-0.031 z m -16.0619,-4.29815 c 0.4703,-3.28 -2.3723,-5.36443 -7.3156,-5.36443 -2.4032,0 -4.6477,-0.45 -4.9876,-1 -0.825,-1.33491 -7.2069,-1.2832 -8.0402,0.0651 -0.4345,0.703 -1.2663,0.5149 -2.4466,-0.55326 -1.3187,-1.19341 -3.3278,-1.53876 -7.6508,-1.31514 -3.2243,0.16679 -5.7804,0.73492 -5.6803,1.26252 0.3379,1.7804 11.168,4.69134 13.2696,3.56662 1.4374,-0.76931 2.3064,-0.62491 3.5155,0.58415 1.2196,1.21956 2.6505,1.44945 5.9461,0.95525 3.43,-0.51436 4.466,-0.32231 4.9412,0.91597 0.6721,1.75151 4.3502,3.52654 6.6455,3.20708 0.825,-0.11482 1.6365,-1.16058 1.8032,-2.3239 z m 9.0058,-13.62273 c 0.1699,-0.87591 -0.5559,-3.53862 -1.6129,-5.91713 -1.0569,-2.37852 -3.1446,-7.69957 -4.6391,-11.82457 -1.4945,-4.125 -3.1022,-8.4 -3.5725,-9.5 -0.4704,-1.1 -1.8264,-4.25 -3.0134,-7 -5.27,-12.20913 -20.6026,-52.4194 -25.5479,-67 -2.9847,-8.8 -6.3712,-18.7 -7.5257,-22 -1.1544,-3.3 -2.5248,-7.575 -3.0453,-9.5 -0.5206,-1.925 -1.3476,-4.4 -1.8379,-5.5 -0.4903,-1.1 -1.8049,-4.925 -2.9214,-8.5 -6.3577,-20.35817 -11.2647,-36.37884 -13.131,-42.87148 -1.5535,-5.40453 -2.4153,-7.07508 -3.2297,-6.26067 -2.0338,2.03379 6.7708,44.88632 12.7659,62.13215 1.4339,4.125 3.2354,9.70442 4.0033,12.39872 0.7678,2.69429 1.8691,5.37179 2.4473,5.95 0.5783,0.5782 1.0513,2.05972 1.0513,3.29226 0,1.23254 0.45,2.5191 1,2.85902 0.55,0.33992 1,1.48674 1,2.54849 0,1.06176 1.0867,4.7477 2.4149,8.19099 1.3282,3.44328 3.3327,9.18552 4.4544,12.76052 1.9381,6.17719 3.8571,11.52624 11.1212,31 1.7439,4.675 5.7798,13.45118 8.9687,19.50264 4.0726,7.72828 6.5815,14.1096 8.4307,21.4428 2.9375,11.6486 4.5008,14.7089 7.8355,15.33836 3.2327,0.61021 4.2312,0.27426 4.5836,-1.5421 z m -18.9297,-3.09622 c 2.5522,-3.07523 -3.8191,-22.60066 -11.0002,-33.71125 -5.4461,-8.42629 -15.1237,-17.62765 -20.1118,-19.1221 -2.5968,-0.77803 -4.6623,-2.20962 -5.6361,-3.90633 -3.1186,-5.43385 -8.1312,-5.86341 -8.1312,-0.6968 0,2.10309 11.1935,14.40025 13.8856,15.25469 0.8887,0.28206 2.2379,1.91824 2.9982,3.63597 0.7604,1.71772 3.7976,5.82978 6.7494,9.1379 4.6582,5.22063 5.3654,6.55923 5.356,10.1386 -0.013,5.07546 -2.3788,13.15637 -4.4607,15.23821 -2.0926,2.09264 -0.8747,3.69861 2.3428,3.08936 1.4458,-0.27377 5.3287,0.0932 8.6287,0.81544 7.8264,1.71294 8.0599,1.71608 9.3793,0.12631 z m -37.2894,-2.4108 c 3.2506,-2.19127 7.3276,-9.72586 7.9475,-14.68781 0.9214,-7.37407 0.074,-9.20337 -5.5933,-12.07522 -2.6995,-1.36791 -5.6429,-3.60864 -6.5411,-4.97938 -3.7007,-5.64797 -5.7425,-1.97594 -5.8427,10.50773 -0.058,7.18117 2.3361,17.75021 4.6997,20.75 1.0909,1.38455 3.6498,1.61725 5.3299,0.48468 z m -1.276,-38.61023 c 0.312,-0.81314 -0.4812,-1.83528 -1.9401,-2.5 -3.2183,-1.46638 -4.3738,-1.42001 -4.3738,0.17555 0,3.17082 5.2477,5.10277 6.3139,2.32445 z m -20.8334,-14.06047 c -0.4811,-4.33688 -1.2879,-6.63361 -2.8326,-8.06398 -14.7138,-13.6248 -22.6791,-20.5113 -25.2193,-21.80385 -3.9863,-2.02835 -19.5226,-7.11109 -25.9286,-8.48259 -2.75,-0.58877 -6.2099,-1.32934 -7.6887,-1.6457 -5.1722,-1.10651 -3.6626,1.12118 2.9845,4.40427 15.1963,7.50558 33.9714,21.63039 43.2369,32.52787 2.3382,2.75 6.2846,6.45759 8.77,8.23909 6.1297,4.39389 7.6119,3.24521 6.6778,-5.17511 z m 42.4949,2.68602 c -0.026,-1.83821 -2.3726,-8.99998 -5.9801,-18.25 -1.1798,-3.025 -2.5167,-6.625 -2.9708,-8 -0.4542,-1.375 -2.7092,-7.675 -5.0111,-14 -2.302,-6.325 -4.776,-13.525 -5.4978,-16 -0.7218,-2.475 -1.9675,-6.3 -2.7681,-8.5 -0.8006,-2.2 -1.7667,-5.6875 -2.1469,-7.75 -0.4207,-2.2826 -1.2562,-3.75 -2.135,-3.75 -1.1907,0 -1.3463,1.53365 -0.8879,8.75 0.3057,4.8125 0.6383,16.44427 0.7391,25.84838 0.1423,13.2815 0.5107,17.52289 1.6503,19 0.8068,1.04589 1.0732,1.56802 0.592,1.16029 -0.9648,-0.81736 -3.5591,0.94356 -3.5591,2.41579 0,0.51127 1.35,1.40019 3,1.97538 1.65,0.57519 3,1.41519 3,1.86667 0,0.45147 3.7125,3.64894 8.25,7.10547 4.5375,3.45654 9.1224,7.09313 10.1886,8.08132 2.4455,2.26652 3.5682,2.28135 3.5368,0.0467 z m -64.9754,-3.63492 c 0,-2.93186 -12.4565,-13.33799 -26.7665,-22.36067 -20.6056,-12.99219 -33.9325,-17.40521 -52.6755,-17.44283 -17.964,-0.0361 -22.8253,2.77034 -9.8491,5.68586 7.8667,1.76752 16.4496,4.7789 23.7911,8.34737 27.034,13.14025 33.8718,16.18116 47,20.90192 3.85,1.38442 9.25,3.34307 12,4.35255 6.0835,2.23315 6.5,2.2662 6.5,0.5158 z m 30.6042,-10.34425 c -1.0165,-1.01652 -1.8553,0.51389 -1.0212,1.86338 0.63,1.01942 0.8656,1.02021 1.2043,0.004 0.2316,-0.69478 0.1492,-1.53512 -0.1831,-1.86741 z m -165.4433,-2.25793 c 3.4865,-1.09291 7.1266,-1.99291 8.0891,-2 2.015,-0.0149 2.3569,-3.00606 0.55,-4.8129 -3.2197,-3.21969 -16.6002,-0.0699 -22.3534,5.26193 -2.292,2.12419 -2.3701,2.41864 -0.752,2.83807 3.9094,1.01337 8.403,0.61357 14.4663,-1.2871 z m 14.2691,-3.8996 c 0.6532,-1.05694 -2.213,-3.66359 -3.0777,-2.79893 -0.8332,0.8332 0.3721,3.68563 1.5573,3.68563 0.5348,0 1.219,-0.39902 1.5204,-0.8867 z m -29.93,-5.09281 c 3.3,-1.55566 9.0415,-4.19527 12.7589,-5.8658 3.7174,-1.67053 7.0295,-3.74257 7.3602,-4.60454 0.6293,-1.63976 -5.0461,-10.02975 -7.4449,-11.00603 -2.536,-1.03208 -15.8958,8.62853 -15.1492,10.95454 0.4362,1.35917 -5.563,8.45458 -7.168,8.47767 -1.9331,0.0278 -3.0467,2.36576 -2.1901,4.59803 0.7512,1.95745 3.5402,1.35552 11.8331,-2.55387 z m 38.1181,1.78849 c 0.4048,-0.65504 0.2859,-1.34102 -0.2643,-1.5244 -0.5501,-0.18339 -0.7937,-1.74091 -0.5412,-3.46117 0.4236,-2.88592 0.2746,-3.07838 -1.9267,-2.48925 -1.3123,0.35117 -2.9484,0.64464 -3.6359,0.65215 -2.0476,0.0224 -1.4301,2.1121 1.5,5.07606 3.1305,3.16664 3.8344,3.41918 4.8681,1.74661 z m 144.912,-0.90363 c 1.1936,-3.76092 0.1736,-19.2631 -1.3921,-21.15538 -1.2713,-1.53646 -1.2592,-1.75 0.099,-1.75 0.8506,0 1.793,-1.0125 2.0941,-2.25 1.2396,-5.09419 -1.4215,-38.61844 -4.7032,-59.25 -1.74,-10.93906 -2.9533,33.29308 -1.344,49 0.2817,2.75 0.8335,5.79323 1.2262,6.76273 0.3927,0.96951 0.2638,2.31951 -0.2864,3 -1.5205,1.88034 -2.4922,12.89984 -1.3925,15.79217 0.6195,1.62948 0.6237,3.16845 0.012,4.2622 -0.701,1.25256 -0.3877,2.51284 1.1679,4.69737 2.5098,3.52475 3.6146,3.74253 4.5197,0.89091 z m -148.7137,-19.22145 c 0.1741,-1.47616 -0.1634,-2.68393 -0.75,-2.68393 -2.0595,0 -1.0827,-4.05828 1.1836,-4.91706 2.7131,-1.02808 4.322,0.0757 5.198,3.56584 0.6898,2.74841 0.3585,2.73608 9.552,0.35535 10.688,-2.76774 14.9549,-3.22145 30,-3.18996 9.2144,0.0193 21.5779,0.7267 28,1.60211 14.4784,1.97356 16.6026,2.02057 14.8215,0.32798 -3.4404,-3.26935 -20.3424,-9.77164 -32.3059,-12.42828 -12.3534,-2.74322 -39.7756,-2.15915 -49.6807,1.05814 -2.3842,0.77441 -7.0349,2.21459 -10.3349,3.20041 -6.0078,1.79471 -13.5,5.19238 -13.5,6.12214 0,1.19238 3.5175,6.30333 4.3381,6.30333 0.4987,0 0.2999,0.73122 -0.4418,1.62494 -1.2273,1.47884 -0.8651,1.55844 4.0286,0.8854 4.5725,-0.62889 5.2904,-0.51378 4.798,0.76933 -0.4638,1.20878 -0.046,1.36759 2.0991,0.79854 1.9326,-0.51261 2.7661,-1.45743 2.9944,-3.39428 z M 1464.75,580.24152 c -1.1451,-2.23285 -1.1183,-2.25967 0.6095,-0.60945 0.994,0.9494 1.533,2.00044 1.1978,2.33564 -0.3352,0.3352 -1.1485,-0.44158 -1.8073,-1.72619 z m -9.8361,-18.75204 c -0.7545,-0.46876 -1.2045,-1.33992 -1,-1.9359 0.2244,-0.6537 0.9162,-0.74547 1.7438,-0.23131 0.7545,0.46876 1.2046,1.33992 1,1.93591 -0.2243,0.65369 -0.9162,0.74546 -1.7438,0.2313 z"
         id="path1-3" /><text
         xml:space="preserve"
         id="text2-9"
         style="font-style:normal;font-variant:normal;font-weight:300;font-stretch:normal;font-size:85.3333px;font-family:'Josefin Sans';-inkscape-font-specification:'Josefin Sans, Light';font-variant-ligatures:normal;font-variant-caps:normal;font-variant-numeric:normal;font-variant-east-asian:normal;text-align:start;writing-mode:lr-tb;direction:ltr;white-space:pre;shape-inside:url(#rect2-0);shape-padding:13.1783;fill:url(#linearGradient48)"
         transform="translate(1082.8178,-2.3000864)" /></g></g></svg>
